<svg version="1.1" xmlns="http://www.w3.org/2000/svg" xmlns:xlink="http://www.w3.org/1999/xlink" x="0px" y="0px" viewbox="-370 -370 128 128" enable-background="new -370 -370 128 128" xml:space="preserve">
         <g>
        <path class="categories-logo" d="M-246.3-338.9v-22.6h-55.5v26.6v7.5h55.5V-338.9z M-297.5-357.2h46.9v14.1l-5.3-5.3c-3-3-7.8-3.2-11-0.4l-8,6.9
            c-1.1,0.9-2.6,1.2-3.9,0.6l-4.4-1.8c-2.5-1-5.3-0.7-7.5,0.8l-6.9,4.6V-357.2z M-250.5-331.6h-46.9v-1l9.3-6.2
            c1-0.7,2.4-0.8,3.5-0.4l4.4,1.8c2.8,1.1,6,0.6,8.2-1.4l8-6.9c1.5-1.3,3.8-1.2,5.2,0.2l8.3,8.3V-331.6z"/>
        <path d="M-244.1-246.3h-77.2c0.2-0.7,0.4-1.4,0.4-2.1c0-3.5-2.9-6.4-6.4-6.4H-338v-39.7l19.2-19.2c1.3,0.8,2.7,1.2,4.3,1.2
            c4.7,0,8.5-3.8,8.5-8.5c0-4.7-3.8-8.5-8.5-8.5c-4.7,0-8.5,3.8-8.5,8.5c0,1.6,0.5,3,1.2,4.3l-16.1,16.1v-26l8.5-8.5
            c1.3,0.8,2.7,1.2,4.3,1.2c4.7,0,8.5-3.8,8.5-8.5c0-4.7-3.8-8.5-8.5-8.5c-4.7,0-8.5,3.8-8.5,8.5c0,1.6,0.5,3,1.2,4.3l-5.5,5.5v-20.8
            c3.7-1,6.4-4.3,6.4-8.2c0-4.7-3.8-8.5-8.5-8.5c-4.7,0-8.5,3.8-8.5,8.5c0,4,2.7,7.3,6.4,8.2v42.1l-7.6-7.6c0.8-1.3,1.2-2.7,1.2-4.3
            c0-4.7-3.8-8.5-8.5-8.5c-4.7,0-8.5,3.8-8.5,8.5c0,4.7,3.8,8.5,8.5,8.5c1.6,0,3-0.5,4.3-1.2l10.6,10.6v50.3h-10.7
            c-3.5,0-6.4,2.9-6.4,6.4c0,0.8,0.2,1.5,0.4,2.1h-8.9c-1.2,0-2.1,1-2.1,2.1s1,2.1,2.1,2.1h14.9h25.6h83.2c1.2,0,2.1-1,2.1-2.1
            S-243-246.3-244.1-246.3z M-314.5-325.2c2.4,0,4.3,1.9,4.3,4.3c0,2.4-1.9,4.3-4.3,4.3c-2.4,0-4.3-1.9-4.3-4.3
            C-318.8-323.3-316.9-325.2-314.5-325.2z M-325.2-346.5c2.4,0,4.3,1.9,4.3,4.3s-1.9,4.3-4.3,4.3c-2.4,0-4.3-1.9-4.3-4.3
            S-327.6-346.5-325.2-346.5z M-361.5-323.1c0-2.4,1.9-4.3,4.3-4.3c2.4,0,4.3,1.9,4.3,4.3c0,2.4-1.9,4.3-4.3,4.3
            C-359.6-318.8-361.5-320.7-361.5-323.1z M-344.4-361.5c0-2.4,1.9-4.3,4.3-4.3s4.3,1.9,4.3,4.3c0,2.4-1.9,4.3-4.3,4.3
            S-344.4-359.1-344.4-361.5z M-352.9-246.3c-1.2,0-2.1-1-2.1-2.1s1-2.1,2.1-2.1h25.6c1.2,0,2.1,1,2.1,2.1s-1,2.1-2.1,2.1H-352.9z"/>
        </g>
</svg>
