<svg version="1.1" xmlns="http://www.w3.org/2000/svg" xmlns:xlink="http://www.w3.org/1999/xlink" x="0px" y="0px" viewbox="0 0 512 512" style="enable-background:new 0 0 512 512;" xml:space="preserve">
        <g>
            <g>
                <g>
                    <path d="M110.933,145.067c-4.71,0-8.533,3.814-8.533,8.533v17.067h-8.533c-4.71,0-8.533,3.814-8.533,8.533
                        s3.823,8.533,8.533,8.533h17.067c4.71,0,8.533-3.814,8.533-8.533v-25.6C119.467,148.881,115.644,145.067,110.933,145.067z"/>
                    <path d="M247.467,221.867h17.065h102.4H384c4.71,0,8.533-3.814,8.533-8.533S388.71,204.8,384,204.8h-9.666L358.313,92.655
                        c-0.597-4.198-4.198-7.322-8.448-7.322h-68.267c-4.241,0-7.842,3.123-8.448,7.322L257.13,204.8h-9.663
                        c-4.71,0-8.533,3.814-8.533,8.533S242.756,221.867,247.467,221.867z M342.467,102.4l3.656,25.6H285.34l3.656-25.6H342.467z
                         M282.903,145.067h65.658l8.532,59.733h-82.722L282.903,145.067z"/>
                    <path d="M349.867,307.2H281.6c-4.71,0-8.533,3.814-8.533,8.533v59.733c0,4.719,3.823,8.533,8.533,8.533h68.267
                        c4.71,0,8.533-3.814,8.533-8.533v-59.733C358.4,311.014,354.577,307.2,349.867,307.2z M341.333,366.933h-51.2v-42.667h51.2
                        V366.933z"/>
                    <path d="M213.333,307.2h-17.067c-4.71,0-8.533,3.814-8.533,8.533s3.823,8.533,8.533,8.533h8.533v8.533
                        c0,4.719,3.823,8.533,8.533,8.533c4.71,0,8.533-3.814,8.533-8.533v-17.067C221.867,311.014,218.044,307.2,213.333,307.2z"/>
                    <path d="M110.933,256H93.867c-4.71,0-8.533,3.814-8.533,8.533s3.823,8.533,8.533,8.533h8.533v17.067
                        c0,4.719,3.823,8.533,8.533,8.533s8.533-3.814,8.533-8.533v-25.6C119.467,259.814,115.644,256,110.933,256z"/>
                    <path d="M503.467,273.067H384H247.467H153.6v-59.733V93.867c0-4.719-3.823-8.533-8.533-8.533H8.533
                        C3.823,85.333,0,89.148,0,93.867v119.467v204.8c0,4.719,3.823,8.533,8.533,8.533h136.533h102.4H384h119.467
                        c4.71,0,8.533-3.814,8.533-8.533v-68.267V281.6C512,276.881,508.177,273.067,503.467,273.067z M494.933,341.333h-102.4v-51.2
                        h102.4V341.333z M17.067,102.4h119.467v102.4H17.067V102.4z M17.067,221.867h119.467V281.6v128H17.067V221.867z M153.6,290.133
                        h85.333V409.6H153.6V290.133z M256,290.133h119.467v59.733V409.6H256V290.133z M494.933,409.6h-102.4v-51.2h102.4V409.6z"/>
                    <path d="M418.133,324.267h51.2c4.71,0,8.533-3.814,8.533-8.533s-3.823-8.533-8.533-8.533h-51.2c-4.71,0-8.533,3.814-8.533,8.533
                        S413.423,324.267,418.133,324.267z"/>
                    <path d="M418.133,392.533h51.2c4.71,0,8.533-3.814,8.533-8.533s-3.823-8.533-8.533-8.533h-51.2c-4.71,0-8.533,3.814-8.533,8.533
                        S413.423,392.533,418.133,392.533z"/>
                </g>
            </g>
        </g>

</svg>
