<svg version="1.1" xmlns="http://www.w3.org/2000/svg" xmlns:xlink="http://www.w3.org/1999/xlink" x="0px" y="0px" viewbox="0 0 512 512" style="enable-background:new 0 0 512 512;" xml:space="preserve">
        <g>
            <g>
                <path d="M469.837,275.903V103.137H512V59.065H73.18V6.228H29.108v269.675v15.475v39.366v15.475v54.89
                    c-9.701-2.333-20.207,1.718-25.631,10.559c-3.408,5.555-4.366,12.343-2.628,18.622c1.737,6.272,6.043,11.595,11.816,14.603
                    c24.523,12.778,75.785,36.279,143.559,50.11c35.018,7.146,70.191,10.769,104.541,10.769c19.579,0,39.192-1.183,58.294-3.519
                    c60.787-7.431,119.144-26.752,173.448-57.425c5.595-3.161,9.568-8.33,11.188-14.555c1.623-6.236,0.669-12.701-2.685-18.202
                    c-6.546-10.735-20.135-14.382-31.17-8.488v-57.365v-15.475h-0.001v-39.366V275.903z M73.18,103.137h35.26v141.279H96.263
                    c-8.649,0-16.643,2.864-23.082,7.692V103.137z M108.439,259.89v16.012H74.287C77.28,266.622,86,259.89,96.263,259.89H108.439z
                     M44.583,21.703h13.122v37.361v44.071v172.766H44.583V21.703z M44.583,291.377h13.122h15.475h35.26h44.072h35.26h44.071h35.26
                    h44.071h35.26h44.072h35.26h15.475h13.122v39.366h-28.596H73.18H44.583V291.377z M123.914,275.903V103.137h13.123v172.766H123.914
                    z M187.771,259.89v16.012h-35.26V259.89H187.771z M152.511,244.415V103.137h35.26v141.279H152.511z M203.246,275.903V103.137
                    h13.122v172.766H203.246z M267.103,259.89v16.012h-35.26V259.89H267.103z M231.843,244.415V103.137h35.26v141.279H231.843z
                     M282.577,275.903V103.137h13.122v172.766H282.577z M346.434,259.89v16.012h-35.26V259.89H346.434z M311.175,244.415V103.137
                    h35.26v141.279H311.175z M361.908,275.903V103.137h13.123v172.766H361.908z M402.683,259.89c10.263,0,18.982,6.733,21.975,16.012
                    h-34.152V259.89H402.683z M390.506,244.415V103.137h35.26v148.971c-6.44-4.828-14.433-7.692-23.083-7.692H390.506z
                     M441.241,275.903V103.137h13.122v172.766H441.241z M454.362,346.218v65.694c-4.353,2.249-8.727,4.42-13.122,6.508v-72.201
                    H454.362z M425.766,346.218v79.198c-80.149,34.247-167.061,42.221-259.032,23.663c-37.11-7.488-69.018-18.26-93.554-28.238
                    v-74.623H425.766z M44.583,346.218h13.122v68.027c-4.786-2.136-9.172-4.183-13.122-6.094V346.218z M476.93,417.317
                    c3.815-2.16,8.589-0.925,10.866,2.81c1.151,1.888,1.478,4.107,0.921,6.25c-0.554,2.13-1.912,3.898-3.822,4.977
                    c-52.527,29.669-108.954,48.355-167.715,55.537c-18.481,2.259-37.462,3.404-56.416,3.404c-33.313,0-67.444-3.519-101.447-10.458
                    c-65.921-13.452-115.698-36.268-139.502-48.67c-2.009-1.047-3.448-2.825-4.051-5.008c-0.606-2.189-0.285-4.463,0.905-6.401
                    c1.517-2.473,4.189-3.862,6.924-3.862c1.247,0,2.508,0.289,3.678,0.895c23.523,12.19,72.524,34.566,136.403,47.456
                    c33.298,6.719,65.944,10.072,97.899,10.071C337.721,474.316,409.86,455.264,476.93,417.317z M425.766,87.662h-35.26h-44.072
                    h-35.26h-44.071h-35.26h-44.071h-35.26h-44.072H73.18V74.54h423.345v13.122h-26.688H425.766z"/>
            </g>
        </g>
        <g>
            <g>
                <rect x="233.886" y="305.504" width="180.921" height="15.475"/>
            </g>
        </g>
        <g>
            <g>
                <rect x="423.061" y="305.504" width="15.475" height="15.475"/>
            </g>
        </g>
</svg>
