<svg version="1.1" xmlns="http://www.w3.org/2000/svg" xmlns:xlink="http://www.w3.org/1999/xlink" x="0px" y="0px" viewbox="0 0 512.853 512.853" style="enable-background:new 0 0 512.853 512.853;" xml:space="preserve">
        <g transform="translate(1 1)">
            <g>
                <g>
                    <path d="M400.067,298.093h17.067c5.12,0,8.533-3.413,8.533-8.533s-3.413-8.533-8.533-8.533h-17.067
                        c-5.12,0-8.533,3.413-8.533,8.533S394.947,298.093,400.067,298.093z"/>
                    <path d="M400.067,383.427h17.067c5.12,0,8.533-3.413,8.533-8.533s-3.413-8.533-8.533-8.533h-17.067
                        c-5.12,0-8.533,3.413-8.533,8.533S394.947,383.427,400.067,383.427z"/>
                    <path d="M400.067,468.76h17.067c5.12,0,8.533-3.413,8.533-8.533c0-5.12-3.413-8.533-8.533-8.533h-17.067
                        c-5.12,0-8.533,3.413-8.533,8.533C391.533,465.347,394.947,468.76,400.067,468.76z"/>
                    <path d="M502.467,203.373H459.8v-84.48c0-5.12-3.413-8.533-8.533-8.533h-25.6v-25.6c0-5.12-3.413-8.533-8.533-8.533H383
                        c-5.12,0-8.533,3.413-8.533,8.533v8.533h-25.6c-5.12,0-8.533,3.413-8.533,8.533v101.547H228.547v-5.12
                        c0-11.093-8.533-19.627-19.627-19.627h-5.12v-8.533h85.333c9.387,0,17.067-7.68,17.067-17.067v-25.6V16.493
                        c0-9.387-7.68-17.067-17.067-17.067H67.267c-9.387,0-17.067,7.68-17.067,17.067v110.933v25.6c0,9.387,7.68,17.067,17.067,17.067
                        H152.6v8.533h-5.973c-11.093,0-19.627,8.533-19.627,19.627v5.12H8.387c-5.12,0-9.387,4.267-9.387,9.387v33.28
                        c0,5.12,4.267,9.387,9.387,9.387h7.68v247.467c0,5.12,3.413,8.533,8.533,8.533h34.133c5.12,0,8.533-3.413,8.533-8.533V255.427
                        h256v76.8v85.333v85.333c0,5.12,3.413,8.533,8.533,8.533h153.6c5.12,0,8.533-3.413,8.533-8.533V417.56v-85.333v-76.8h7.68
                        c5.12,0,9.387-4.267,10.24-9.387v-33.28C511.853,207.64,507.587,203.373,502.467,203.373z M442.733,127.427v75.947h-17.067
                        v-75.947H442.733z M391.533,93.293H408.6v25.6v84.48h-17.067V101.827V93.293z M357.4,110.36h17.067v93.013H357.4V110.36z
                         M289.133,16.493v102.4H67.267v-102.4H289.133z M67.267,135.96h221.867v17.067h-93.867h-34.133H67.267V135.96z M169.667,170.093
                        h17.067v8.533h-17.067V170.093z M144.92,198.253c0-1.707,0.853-2.56,2.56-2.56h13.653h34.133h14.507
                        c1.707,0,2.56,0.853,2.56,2.56v5.12H144.92V198.253z M50.2,494.36H33.133V255.427H50.2V494.36z M476.867,409.027H340.333V340.76
                        h136.533V409.027z M476.867,494.36H340.333v-68.267h136.533V494.36z M476.867,323.693H340.333v-68.267h136.533V323.693z
                         M493.933,238.36H485.4H331.8H58.733H24.6h-8.533v-17.067h119.467h85.333h128H383h34.133h34.133h42.667V238.36z"/>
                    <path d="M84.333,59.16c2.56,0,4.267-0.853,5.973-2.56l17.067-17.067c3.413-3.413,3.413-8.533,0-11.947s-8.533-3.413-11.947,0
                        L78.36,44.653c-3.413,3.413-3.413,8.533,0,11.947C80.067,58.307,81.773,59.16,84.333,59.16z"/>
                    <path d="M86.893,90.733c1.707,1.707,3.413,2.56,5.973,2.56c2.56,0,4.267-0.853,5.973-2.56l42.667-42.667
                        c3.413-3.413,3.413-8.533,0-11.947s-8.533-3.413-11.947,0L86.893,78.787C83.48,82.2,83.48,87.32,86.893,90.733z"/>
                </g>
            </g>
        </g>
        </svg>
